<mxfile host="app.diagrams.net" modified="2020-04-14T15:15:19.838Z" agent="5.0 (Windows NT 10.0; Win64; x64) AppleWebKit/537.36 (KHTML, like Gecko) Chrome/81.0.4044.92 Safari/537.36" etag="fjI-yS1wGj-hflssGQUh" version="12.9.12" type="github">
  <diagram id="cj2ua9iN2MDdaVUimbTj" name="Page-1">
    <mxGraphModel dx="912" dy="454" grid="1" gridSize="10" guides="1" tooltips="1" connect="1" arrows="1" fold="1" page="1" pageScale="1" pageWidth="827" pageHeight="1169" math="0" shadow="0">
      <root>
        <mxCell id="0" />
        <mxCell id="1" parent="0" />
        <mxCell id="PfSVO4qsS9hKbJUOizry-1" value="" style="shape=cube;whiteSpace=wrap;html=1;boundedLbl=1;backgroundOutline=1;darkOpacity=0;darkOpacity2=0;direction=south;size=7;fontFamily=Times New Roman;strokeColor=#000000;fontSize=12;" parent="1" vertex="1">
          <mxGeometry x="324" y="1578" width="410" height="42" as="geometry" />
        </mxCell>
        <mxCell id="PfSVO4qsS9hKbJUOizry-2" value="" style="shape=cube;whiteSpace=wrap;html=1;boundedLbl=1;backgroundOutline=1;darkOpacity=0;darkOpacity2=0;direction=south;size=15;fontFamily=Times New Roman;strokeColor=#000000;fontSize=12;" parent="1" vertex="1">
          <mxGeometry x="328" y="1495" width="406" height="50" as="geometry" />
        </mxCell>
        <mxCell id="PfSVO4qsS9hKbJUOizry-3" value="" style="endArrow=classic;html=1;fontFamily=Times New Roman;exitX=-0.003;exitY=0.033;exitDx=0;exitDy=0;exitPerimeter=0;entryX=0.98;entryY=0.571;entryDx=0;entryDy=0;entryPerimeter=0;fontSize=12;strokeColor=#000000;" parent="1" source="PfSVO4qsS9hKbJUOizry-4" target="PfSVO4qsS9hKbJUOizry-2" edge="1">
          <mxGeometry width="50" height="50" relative="1" as="geometry">
            <mxPoint x="475.19999999999993" y="1603.884" as="sourcePoint" />
            <mxPoint x="504" y="1556" as="targetPoint" />
          </mxGeometry>
        </mxCell>
        <mxCell id="PfSVO4qsS9hKbJUOizry-4" value="&lt;i style=&quot;font-size: 12px;&quot;&gt;t&lt;sub style=&quot;font-size: 12px;&quot;&gt;i&lt;/sub&gt;&lt;/i&gt;" style="rounded=0;whiteSpace=wrap;html=1;dashed=1;fontFamily=Times New Roman;fontSize=12;strokeColor=#000000;strokeWidth=2;" parent="1" vertex="1">
          <mxGeometry x="475" y="1586" width="100" height="34" as="geometry" />
        </mxCell>
        <mxCell id="PfSVO4qsS9hKbJUOizry-5" value="&lt;font style=&quot;font-size: 12px;&quot;&gt;卷积&lt;/font&gt;" style="text;html=1;resizable=0;points=[];autosize=1;align=left;verticalAlign=top;spacingTop=-4;fontFamily=Times New Roman;fontSize=12;strokeColor=none;" parent="1" vertex="1">
          <mxGeometry x="505" y="1557" width="40" height="10" as="geometry" />
        </mxCell>
        <mxCell id="PfSVO4qsS9hKbJUOizry-6" value="" style="shape=cube;whiteSpace=wrap;html=1;boundedLbl=1;backgroundOutline=1;darkOpacity=0;darkOpacity2=0;direction=south;size=15;fontFamily=Times New Roman;fontSize=12;strokeColor=#000000;" parent="1" vertex="1">
          <mxGeometry x="435" y="1410" width="210" height="53" as="geometry" />
        </mxCell>
        <mxCell id="PfSVO4qsS9hKbJUOizry-7" value="" style="rounded=0;whiteSpace=wrap;html=1;dashed=1;fontFamily=Times New Roman;fontSize=12;strokeColor=#000000;strokeWidth=2;" parent="1" vertex="1">
          <mxGeometry x="503" y="1511" width="60" height="35" as="geometry" />
        </mxCell>
        <mxCell id="PfSVO4qsS9hKbJUOizry-8" value="" style="endArrow=none;dashed=1;html=1;fontFamily=Times New Roman;fontSize=12;strokeColor=#000000;strokeWidth=2;" parent="1" edge="1">
          <mxGeometry width="50" height="50" relative="1" as="geometry">
            <mxPoint x="532.5" y="1546" as="sourcePoint" />
            <mxPoint x="532.5" y="1511" as="targetPoint" />
          </mxGeometry>
        </mxCell>
        <mxCell id="PfSVO4qsS9hKbJUOizry-9" value="&lt;font style=&quot;font-size: 12px;&quot;&gt;池化&lt;/font&gt;" style="text;html=1;resizable=0;points=[];autosize=1;align=left;verticalAlign=top;spacingTop=-4;fontFamily=Times New Roman;fontSize=12;strokeColor=none;" parent="1" vertex="1">
          <mxGeometry x="519.5" y="1474" width="40" height="10" as="geometry" />
        </mxCell>
        <mxCell id="PfSVO4qsS9hKbJUOizry-10" value="&lt;i style=&quot;font-size: 12px;&quot;&gt;t&lt;sub style=&quot;font-size: 12px;&quot;&gt;i-1&lt;/sub&gt;&lt;/i&gt;" style="text;html=1;strokeColor=none;fillColor=none;align=center;verticalAlign=middle;whiteSpace=wrap;rounded=0;dashed=1;fontFamily=Times New Roman;fontSize=12;" parent="1" vertex="1">
          <mxGeometry x="471.5" y="1593" width="40" height="20" as="geometry" />
        </mxCell>
        <mxCell id="PfSVO4qsS9hKbJUOizry-11" value="&lt;i style=&quot;font-size: 12px;&quot;&gt;t&lt;sub style=&quot;font-size: 12px;&quot;&gt;i&lt;/sub&gt;&lt;/i&gt;" style="text;html=1;strokeColor=none;fillColor=none;align=center;verticalAlign=middle;whiteSpace=wrap;rounded=0;dashed=1;fontFamily=Times New Roman;fontSize=12;" parent="1" vertex="1">
          <mxGeometry x="513" y="1518" width="10" height="20" as="geometry" />
        </mxCell>
        <mxCell id="PfSVO4qsS9hKbJUOizry-12" value="&lt;i style=&quot;font-size: 12px;&quot;&gt;t&lt;sub style=&quot;font-size: 12px;&quot;&gt;i+1&lt;/sub&gt;&lt;/i&gt;" style="text;html=1;strokeColor=none;fillColor=none;align=center;verticalAlign=middle;whiteSpace=wrap;rounded=0;dashed=1;fontFamily=Times New Roman;fontSize=12;" parent="1" vertex="1">
          <mxGeometry x="543" y="1518" width="10" height="20" as="geometry" />
        </mxCell>
        <mxCell id="PfSVO4qsS9hKbJUOizry-13" value="&lt;font style=&quot;font-size: 12px&quot;&gt;&lt;font style=&quot;font-size: 12px&quot;&gt;&lt;i style=&quot;font-size: 12px&quot;&gt;&lt;span style=&quot;font-size: 12px&quot;&gt;&amp;nbsp;l=(l&lt;/span&gt;&lt;sub style=&quot;font-size: 12px&quot;&gt;1&lt;/sub&gt;&lt;span style=&quot;font-size: 12px&quot;&gt;,l&lt;/span&gt;&lt;sub style=&quot;font-size: 12px&quot;&gt;2&lt;/sub&gt;&lt;span style=&quot;font-size: 12px&quot;&gt;,...,l&lt;/span&gt;&lt;span style=&quot;font-size: 12px&quot;&gt;&lt;sub&gt;12&lt;/sub&gt;&lt;/span&gt;&lt;/i&gt;&lt;/font&gt;&lt;i style=&quot;font-size: 12px&quot;&gt;)&lt;/i&gt;&lt;/font&gt;" style="text;html=1;strokeColor=none;fillColor=none;align=center;verticalAlign=middle;whiteSpace=wrap;rounded=0;dashed=1;fontFamily=Times New Roman;fontSize=12;" parent="1" vertex="1">
          <mxGeometry x="427.5" y="1622" width="189" height="31" as="geometry" />
        </mxCell>
        <mxCell id="PfSVO4qsS9hKbJUOizry-14" value="" style="endArrow=none;dashed=1;html=1;entryX=0.3;entryY=0;entryDx=0;entryDy=0;entryPerimeter=0;exitX=0.307;exitY=1.035;exitDx=0;exitDy=0;exitPerimeter=0;fontFamily=Times New Roman;fontSize=12;strokeColor=#000000;strokeWidth=2;" parent="1" edge="1">
          <mxGeometry width="50" height="50" relative="1" as="geometry">
            <mxPoint x="508" y="1620" as="sourcePoint" />
            <mxPoint x="508" y="1584.9999999999998" as="targetPoint" />
          </mxGeometry>
        </mxCell>
        <mxCell id="PfSVO4qsS9hKbJUOizry-15" value="" style="endArrow=none;dashed=1;html=1;entryX=0.3;entryY=0;entryDx=0;entryDy=0;entryPerimeter=0;fontFamily=Times New Roman;fontSize=12;strokeColor=#000000;strokeWidth=2;" parent="1" edge="1">
          <mxGeometry width="50" height="50" relative="1" as="geometry">
            <mxPoint x="540" y="1620" as="sourcePoint" />
            <mxPoint x="540" y="1584.9999999999998" as="targetPoint" />
          </mxGeometry>
        </mxCell>
        <mxCell id="PfSVO4qsS9hKbJUOizry-16" value="" style="endArrow=classic;html=1;fontFamily=Times New Roman;entryX=0.5;entryY=1;entryDx=0;entryDy=0;exitX=0.991;exitY=0.02;exitDx=0;exitDy=0;exitPerimeter=0;fontSize=12;strokeColor=#000000;" parent="1" source="PfSVO4qsS9hKbJUOizry-4" target="PfSVO4qsS9hKbJUOizry-7" edge="1">
          <mxGeometry width="50" height="50" relative="1" as="geometry">
            <mxPoint x="574" y="1594" as="sourcePoint" />
            <mxPoint x="515" y="1566" as="targetPoint" />
          </mxGeometry>
        </mxCell>
        <mxCell id="PfSVO4qsS9hKbJUOizry-17" value="" style="endArrow=classic;html=1;fillColor=#ffffff;fontFamily=Times New Roman;fontSize=12;entryX=0.345;entryY=0.992;entryDx=0;entryDy=0;entryPerimeter=0;exitX=0.003;exitY=0.012;exitDx=0;exitDy=0;exitPerimeter=0;strokeColor=#000000;" parent="1" source="PfSVO4qsS9hKbJUOizry-7" target="PfSVO4qsS9hKbJUOizry-22" edge="1">
          <mxGeometry width="50" height="50" relative="1" as="geometry">
            <mxPoint x="503" y="1513" as="sourcePoint" />
            <mxPoint x="520" y="1463" as="targetPoint" />
          </mxGeometry>
        </mxCell>
        <mxCell id="PfSVO4qsS9hKbJUOizry-18" value="" style="endArrow=classic;html=1;fillColor=#ffffff;fontFamily=Times New Roman;fontSize=12;entryX=1.011;entryY=0.438;entryDx=0;entryDy=0;entryPerimeter=0;exitX=0.998;exitY=-0.012;exitDx=0;exitDy=0;exitPerimeter=0;strokeColor=#000000;" parent="1" source="PfSVO4qsS9hKbJUOizry-7" target="PfSVO4qsS9hKbJUOizry-6" edge="1">
          <mxGeometry width="50" height="50" relative="1" as="geometry">
            <mxPoint x="654" y="1503" as="sourcePoint" />
            <mxPoint x="704" y="1453" as="targetPoint" />
          </mxGeometry>
        </mxCell>
        <mxCell id="PfSVO4qsS9hKbJUOizry-19" value="&lt;i style=&quot;font-size: 12px;&quot;&gt;t&lt;sub style=&quot;font-size: 12px;&quot;&gt;i+1&lt;/sub&gt;&lt;/i&gt;" style="text;html=1;strokeColor=none;fillColor=none;align=center;verticalAlign=middle;whiteSpace=wrap;rounded=0;dashed=1;fontFamily=Times New Roman;fontSize=12;" parent="1" vertex="1">
          <mxGeometry x="552" y="1594" width="10" height="20" as="geometry" />
        </mxCell>
        <mxCell id="PfSVO4qsS9hKbJUOizry-20" value="" style="shape=cube;whiteSpace=wrap;html=1;boundedLbl=1;backgroundOutline=1;darkOpacity=0;darkOpacity2=0;direction=south;size=9;fontFamily=Times New Roman;strokeColor=#000000;fontSize=12;" parent="1" vertex="1">
          <mxGeometry x="438" y="1247" width="197" height="43" as="geometry" />
        </mxCell>
        <mxCell id="PfSVO4qsS9hKbJUOizry-21" value="" style="shape=cube;whiteSpace=wrap;html=1;boundedLbl=1;backgroundOutline=1;darkOpacity=0;darkOpacity2=0;direction=south;size=7;fontFamily=Times New Roman;strokeColor=#000000;fontSize=12;" parent="1" vertex="1">
          <mxGeometry x="483" y="1185" width="110" height="36" as="geometry" />
        </mxCell>
        <mxCell id="PfSVO4qsS9hKbJUOizry-22" value="&lt;i style=&quot;font-size: 12px;&quot;&gt;t&lt;/i&gt;&lt;i style=&quot;font-size: 12px;&quot;&gt;&lt;sub style=&quot;font-size: 12px;&quot;&gt;(i+1)/2&lt;/sub&gt;&lt;/i&gt;" style="rounded=0;whiteSpace=wrap;html=1;dashed=1;fontFamily=Times New Roman;fontSize=12;strokeColor=#000000;strokeWidth=2;" parent="1" vertex="1">
          <mxGeometry x="487" y="1426" width="100" height="37" as="geometry" />
        </mxCell>
        <mxCell id="PfSVO4qsS9hKbJUOizry-23" value="" style="endArrow=none;dashed=1;html=1;entryX=0.3;entryY=0;entryDx=0;entryDy=0;entryPerimeter=0;exitX=0.307;exitY=1.035;exitDx=0;exitDy=0;exitPerimeter=0;fontFamily=Times New Roman;fontSize=12;strokeColor=#000000;strokeWidth=2;" parent="1" edge="1">
          <mxGeometry width="50" height="50" relative="1" as="geometry">
            <mxPoint x="522.5" y="1463.0000000000002" as="sourcePoint" />
            <mxPoint x="522.5" y="1424.9999999999998" as="targetPoint" />
          </mxGeometry>
        </mxCell>
        <mxCell id="PfSVO4qsS9hKbJUOizry-24" value="" style="endArrow=none;dashed=1;html=1;entryX=0.3;entryY=0;entryDx=0;entryDy=0;entryPerimeter=0;exitX=0.307;exitY=1.035;exitDx=0;exitDy=0;exitPerimeter=0;fontFamily=Times New Roman;fontSize=12;strokeColor=#000000;strokeWidth=2;" parent="1" edge="1">
          <mxGeometry width="50" height="50" relative="1" as="geometry">
            <mxPoint x="554.4999999999998" y="1463.0000000000002" as="sourcePoint" />
            <mxPoint x="554.4999999999998" y="1424.9999999999998" as="targetPoint" />
          </mxGeometry>
        </mxCell>
        <mxCell id="PfSVO4qsS9hKbJUOizry-25" value="" style="rounded=0;whiteSpace=wrap;html=1;dashed=1;fontFamily=Times New Roman;fontSize=12;strokeColor=#000000;strokeWidth=2;" parent="1" vertex="1">
          <mxGeometry x="509" y="1256" width="60" height="35" as="geometry" />
        </mxCell>
        <mxCell id="PfSVO4qsS9hKbJUOizry-26" value="" style="endArrow=none;dashed=1;html=1;exitX=0.307;exitY=1.035;exitDx=0;exitDy=0;exitPerimeter=0;fontFamily=Times New Roman;fontSize=12;strokeColor=#000000;strokeWidth=2;" parent="1" edge="1">
          <mxGeometry width="50" height="50" relative="1" as="geometry">
            <mxPoint x="537.5" y="1289.9999999999998" as="sourcePoint" />
            <mxPoint x="538" y="1254.9999999999998" as="targetPoint" />
          </mxGeometry>
        </mxCell>
        <mxCell id="PfSVO4qsS9hKbJUOizry-27" value="" style="rounded=0;whiteSpace=wrap;html=1;dashed=1;fontFamily=Times New Roman;fontSize=12;strokeColor=#000000;strokeWidth=2;" parent="1" vertex="1">
          <mxGeometry x="520" y="1193" width="30" height="28" as="geometry" />
        </mxCell>
        <mxCell id="PfSVO4qsS9hKbJUOizry-28" value="" style="endArrow=classic;html=1;strokeColor=#000000;strokeWidth=1;fillColor=#ffffff;fontFamily=Times New Roman;fontSize=12;exitX=0;exitY=0;exitDx=0;exitDy=0;" parent="1" source="PfSVO4qsS9hKbJUOizry-22" edge="1">
          <mxGeometry width="50" height="50" relative="1" as="geometry">
            <mxPoint x="489" y="1419.3709999999999" as="sourcePoint" />
            <mxPoint x="521" y="1374" as="targetPoint" />
          </mxGeometry>
        </mxCell>
        <mxCell id="PfSVO4qsS9hKbJUOizry-29" value="" style="endArrow=classic;html=1;strokeColor=#000000;strokeWidth=1;fillColor=#ffffff;fontFamily=Times New Roman;fontSize=12;exitX=0.991;exitY=-0.01;exitDx=0;exitDy=0;exitPerimeter=0;entryX=0.685;entryY=0.997;entryDx=0;entryDy=0;entryPerimeter=0;" parent="1" source="PfSVO4qsS9hKbJUOizry-22" target="PfSVO4qsS9hKbJUOizry-50" edge="1">
          <mxGeometry width="50" height="50" relative="1" as="geometry">
            <mxPoint x="590" y="1441" as="sourcePoint" />
            <mxPoint x="570" y="1370" as="targetPoint" />
          </mxGeometry>
        </mxCell>
        <mxCell id="PfSVO4qsS9hKbJUOizry-30" value="" style="endArrow=classic;html=1;strokeColor=#000000;strokeWidth=1;fillColor=#ffffff;fontFamily=Times New Roman;fontSize=12;exitX=0.009;exitY=0.001;exitDx=0;exitDy=0;exitPerimeter=0;entryX=-0.024;entryY=1.013;entryDx=0;entryDy=0;entryPerimeter=0;" parent="1" source="PfSVO4qsS9hKbJUOizry-25" target="PfSVO4qsS9hKbJUOizry-27" edge="1">
          <mxGeometry width="50" height="50" relative="1" as="geometry">
            <mxPoint x="639" y="1257" as="sourcePoint" />
            <mxPoint x="689" y="1207" as="targetPoint" />
          </mxGeometry>
        </mxCell>
        <mxCell id="PfSVO4qsS9hKbJUOizry-31" value="" style="endArrow=classic;html=1;strokeColor=#000000;strokeWidth=1;fillColor=#ffffff;fontFamily=Times New Roman;fontSize=12;exitX=1.021;exitY=0.006;exitDx=0;exitDy=0;exitPerimeter=0;entryX=1.007;entryY=0.388;entryDx=0;entryDy=0;entryPerimeter=0;" parent="1" source="PfSVO4qsS9hKbJUOizry-25" target="PfSVO4qsS9hKbJUOizry-21" edge="1">
          <mxGeometry width="50" height="50" relative="1" as="geometry">
            <mxPoint x="689" y="1297" as="sourcePoint" />
            <mxPoint x="739" y="1247" as="targetPoint" />
          </mxGeometry>
        </mxCell>
        <mxCell id="PfSVO4qsS9hKbJUOizry-32" value="&lt;font style=&quot;font-size: 12px;&quot;&gt;卷积&lt;/font&gt;" style="text;html=1;resizable=0;points=[];autosize=1;align=left;verticalAlign=top;spacingTop=-4;fontFamily=Times New Roman;fontSize=12;strokeColor=none;" parent="1" vertex="1">
          <mxGeometry x="516.5" y="1391" width="40" height="10" as="geometry" />
        </mxCell>
        <mxCell id="PfSVO4qsS9hKbJUOizry-33" value="&lt;font style=&quot;font-size: 12px;&quot;&gt;池化&lt;/font&gt;" style="text;html=1;resizable=0;points=[];autosize=1;align=left;verticalAlign=top;spacingTop=-4;fontFamily=Times New Roman;fontSize=12;strokeColor=none;" parent="1" vertex="1">
          <mxGeometry x="517.5" y="1226" width="40" height="10" as="geometry" />
        </mxCell>
        <mxCell id="PfSVO4qsS9hKbJUOizry-34" value="&lt;font style=&quot;font-size: 12px;&quot;&gt;大小64*200&lt;/font&gt;" style="text;html=1;strokeColor=none;fillColor=none;align=center;verticalAlign=middle;whiteSpace=wrap;rounded=0;shadow=0;glass=0;comic=0;labelBackgroundColor=none;fontFamily=Times New Roman;fontSize=12;" parent="1" vertex="1">
          <mxGeometry x="625" y="1464.5" width="62" height="35" as="geometry" />
        </mxCell>
        <mxCell id="PfSVO4qsS9hKbJUOizry-35" value="&lt;i style=&quot;font-size: 12px;&quot;&gt;t&lt;sub style=&quot;font-size: 12px;&quot;&gt;j&lt;/sub&gt;&lt;/i&gt;" style="text;html=1;strokeColor=none;fillColor=none;align=center;verticalAlign=middle;whiteSpace=wrap;rounded=0;shadow=0;glass=0;comic=0;labelBackgroundColor=none;fontFamily=Times New Roman;fontSize=12;" parent="1" vertex="1">
          <mxGeometry x="510.5" y="1264.5" width="30" height="20" as="geometry" />
        </mxCell>
        <mxCell id="PfSVO4qsS9hKbJUOizry-36" value="&lt;i style=&quot;font-size: 12px;&quot;&gt;t&lt;sub style=&quot;font-size: 12px;&quot;&gt;j+1&lt;/sub&gt;&lt;/i&gt;" style="text;html=1;strokeColor=none;fillColor=none;align=center;verticalAlign=middle;whiteSpace=wrap;rounded=0;shadow=0;glass=0;comic=0;labelBackgroundColor=none;fontFamily=Times New Roman;fontSize=12;" parent="1" vertex="1">
          <mxGeometry x="534.5" y="1264.5" width="40" height="20" as="geometry" />
        </mxCell>
        <mxCell id="PfSVO4qsS9hKbJUOizry-37" value="&lt;i style=&quot;font-size: 12px;&quot;&gt;t&lt;sub style=&quot;font-size: 12px;&quot;&gt;(j+1)/2&lt;/sub&gt;&lt;/i&gt;" style="text;html=1;fontSize=12;fontFamily=Times New Roman;strokeColor=none;" parent="1" vertex="1">
          <mxGeometry x="517" y="1192" width="50" height="38" as="geometry" />
        </mxCell>
        <mxCell id="PfSVO4qsS9hKbJUOizry-38" value="" style="endArrow=classic;html=1;strokeColor=#000000;strokeWidth=1;fillColor=#ffffff;fontFamily=Times New Roman;fontSize=12;" parent="1" edge="1">
          <mxGeometry width="50" height="50" relative="1" as="geometry">
            <mxPoint x="493" y="1187" as="sourcePoint" />
            <mxPoint x="493" y="1167" as="targetPoint" />
          </mxGeometry>
        </mxCell>
        <mxCell id="PfSVO4qsS9hKbJUOizry-39" value="" style="endArrow=classic;html=1;strokeColor=#000000;strokeWidth=1;fillColor=#ffffff;fontFamily=Times New Roman;fontSize=12;" parent="1" edge="1">
          <mxGeometry width="50" height="50" relative="1" as="geometry">
            <mxPoint x="509" y="1187" as="sourcePoint" />
            <mxPoint x="509" y="1167" as="targetPoint" />
          </mxGeometry>
        </mxCell>
        <mxCell id="PfSVO4qsS9hKbJUOizry-40" value="" style="endArrow=classic;html=1;strokeColor=#000000;strokeWidth=1;fillColor=#ffffff;fontFamily=Times New Roman;fontSize=12;" parent="1" edge="1">
          <mxGeometry width="50" height="50" relative="1" as="geometry">
            <mxPoint x="584.9999999999995" y="1187" as="sourcePoint" />
            <mxPoint x="584.9999999999995" y="1167" as="targetPoint" />
          </mxGeometry>
        </mxCell>
        <mxCell id="PfSVO4qsS9hKbJUOizry-41" value="&lt;i style=&quot;font-size: 12px;&quot;&gt;g&lt;sub style=&quot;font-size: 12px;&quot;&gt;1&lt;/sub&gt;&lt;/i&gt;" style="text;html=1;strokeColor=none;fillColor=none;align=center;verticalAlign=middle;whiteSpace=wrap;rounded=0;shadow=0;glass=0;comic=0;labelBackgroundColor=none;fontFamily=Times New Roman;fontSize=12;" parent="1" vertex="1">
          <mxGeometry x="476" y="1150" width="30" height="20" as="geometry" />
        </mxCell>
        <mxCell id="PfSVO4qsS9hKbJUOizry-42" value="&lt;i style=&quot;font-size: 12px;&quot;&gt;g&lt;sub style=&quot;font-size: 12px;&quot;&gt;2&lt;br style=&quot;font-size: 12px;&quot;&gt;&lt;/sub&gt;&lt;/i&gt;" style="text;html=1;strokeColor=none;fillColor=none;align=center;verticalAlign=middle;whiteSpace=wrap;rounded=0;shadow=0;glass=0;comic=0;labelBackgroundColor=none;fontFamily=Times New Roman;fontSize=12;" parent="1" vertex="1">
          <mxGeometry x="501" y="1150" width="19" height="20" as="geometry" />
        </mxCell>
        <mxCell id="PfSVO4qsS9hKbJUOizry-43" value="&lt;i style=&quot;font-size: 12px;&quot;&gt;g&lt;sub style=&quot;font-size: 12px;&quot;&gt;k&lt;br style=&quot;font-size: 12px;&quot;&gt;&lt;/sub&gt;&lt;/i&gt;" style="text;html=1;strokeColor=none;fillColor=none;align=center;verticalAlign=middle;whiteSpace=wrap;rounded=0;shadow=0;glass=0;comic=0;labelBackgroundColor=none;fontFamily=Times New Roman;fontSize=12;" parent="1" vertex="1">
          <mxGeometry x="576.5" y="1150" width="17" height="20" as="geometry" />
        </mxCell>
        <mxCell id="PfSVO4qsS9hKbJUOizry-44" value="&lt;font style=&quot;font-size: 12px;&quot;&gt;...&lt;/font&gt;" style="text;html=1;strokeColor=none;fillColor=none;align=center;verticalAlign=middle;whiteSpace=wrap;rounded=0;shadow=0;glass=0;comic=0;labelBackgroundColor=none;fontFamily=Times New Roman;fontSize=12;" parent="1" vertex="1">
          <mxGeometry x="533.5" y="1157" width="30" height="15" as="geometry" />
        </mxCell>
        <mxCell id="PfSVO4qsS9hKbJUOizry-45" value="&lt;font style=&quot;font-size: 12px;&quot;&gt;大小12*200&lt;/font&gt;" style="text;html=1;fontSize=12;fontFamily=Times New Roman;strokeColor=none;" parent="1" vertex="1">
          <mxGeometry x="623" y="1546" width="68" height="25" as="geometry" />
        </mxCell>
        <mxCell id="PfSVO4qsS9hKbJUOizry-46" value="&lt;font style=&quot;font-size: 12px;&quot;&gt;大小64*100&lt;/font&gt;" style="text;html=1;strokeColor=none;fillColor=none;align=center;verticalAlign=middle;whiteSpace=wrap;rounded=0;shadow=0;glass=0;comic=0;labelBackgroundColor=none;fontFamily=Times New Roman;fontSize=12;" parent="1" vertex="1">
          <mxGeometry x="607.5" y="1381" width="97" height="35" as="geometry" />
        </mxCell>
        <mxCell id="PfSVO4qsS9hKbJUOizry-47" value="&lt;font style=&quot;font-size: 12px;&quot;&gt;大小32*100&lt;/font&gt;" style="text;html=1;strokeColor=none;fillColor=none;align=center;verticalAlign=middle;whiteSpace=wrap;rounded=0;shadow=0;glass=0;comic=0;labelBackgroundColor=none;fontFamily=Times New Roman;fontSize=12;" parent="1" vertex="1">
          <mxGeometry x="600.5" y="1212" width="97" height="35" as="geometry" />
        </mxCell>
        <mxCell id="PfSVO4qsS9hKbJUOizry-48" value="&lt;font style=&quot;font-size: 12px;&quot;&gt;大小32*50&lt;/font&gt;" style="text;html=1;strokeColor=none;fillColor=none;align=center;verticalAlign=middle;whiteSpace=wrap;rounded=0;shadow=0;glass=0;comic=0;labelBackgroundColor=none;fontFamily=Times New Roman;fontSize=12;" parent="1" vertex="1">
          <mxGeometry x="617.5" y="1152.5" width="62" height="35" as="geometry" />
        </mxCell>
        <mxCell id="PfSVO4qsS9hKbJUOizry-49" value="" style="shape=cube;whiteSpace=wrap;html=1;boundedLbl=1;backgroundOutline=1;darkOpacity=0;darkOpacity2=0;direction=south;size=15;fontFamily=Times New Roman;fontSize=12;strokeColor=#000000;" parent="1" vertex="1">
          <mxGeometry x="434" y="1320" width="210" height="53" as="geometry" />
        </mxCell>
        <mxCell id="PfSVO4qsS9hKbJUOizry-50" value="&lt;i style=&quot;font-size: 12px;&quot;&gt;t&lt;/i&gt;&lt;i style=&quot;font-size: 12px;&quot;&gt;&lt;sub style=&quot;font-size: 12px;&quot;&gt;(i+1)/2&lt;/sub&gt;&lt;/i&gt;" style="rounded=0;whiteSpace=wrap;html=1;dashed=1;fontFamily=Times New Roman;fontSize=12;strokeColor=#000000;strokeWidth=2;" parent="1" vertex="1">
          <mxGeometry x="486" y="1336" width="100" height="37" as="geometry" />
        </mxCell>
        <mxCell id="PfSVO4qsS9hKbJUOizry-51" value="" style="endArrow=none;dashed=1;html=1;entryX=0.3;entryY=0;entryDx=0;entryDy=0;entryPerimeter=0;exitX=0.307;exitY=1.035;exitDx=0;exitDy=0;exitPerimeter=0;fontFamily=Times New Roman;fontSize=12;strokeColor=#000000;strokeWidth=2;" parent="1" edge="1">
          <mxGeometry width="50" height="50" relative="1" as="geometry">
            <mxPoint x="521.5" y="1373.0000000000002" as="sourcePoint" />
            <mxPoint x="521.5" y="1334.9999999999998" as="targetPoint" />
          </mxGeometry>
        </mxCell>
        <mxCell id="PfSVO4qsS9hKbJUOizry-52" value="" style="endArrow=none;dashed=1;html=1;entryX=0.3;entryY=0;entryDx=0;entryDy=0;entryPerimeter=0;exitX=0.307;exitY=1.035;exitDx=0;exitDy=0;exitPerimeter=0;fontFamily=Times New Roman;fontSize=12;strokeColor=#000000;strokeWidth=2;" parent="1" edge="1">
          <mxGeometry width="50" height="50" relative="1" as="geometry">
            <mxPoint x="553.5" y="1373.0000000000002" as="sourcePoint" />
            <mxPoint x="553.5" y="1334.9999999999998" as="targetPoint" />
          </mxGeometry>
        </mxCell>
        <mxCell id="PfSVO4qsS9hKbJUOizry-53" value="" style="endArrow=classic;html=1;strokeColor=#000000;strokeWidth=1;fillColor=#ffffff;fontFamily=Times New Roman;fontSize=12;exitX=0.01;exitY=-0.017;exitDx=0;exitDy=0;exitPerimeter=0;entryX=0;entryY=1;entryDx=0;entryDy=0;" parent="1" source="PfSVO4qsS9hKbJUOizry-50" target="PfSVO4qsS9hKbJUOizry-25" edge="1">
          <mxGeometry width="50" height="50" relative="1" as="geometry">
            <mxPoint x="488" y="1350" as="sourcePoint" />
            <mxPoint x="514" y="1287" as="targetPoint" />
          </mxGeometry>
        </mxCell>
        <mxCell id="PfSVO4qsS9hKbJUOizry-54" value="" style="endArrow=classic;html=1;strokeColor=#000000;strokeWidth=1;fillColor=#ffffff;fontFamily=Times New Roman;fontSize=12;exitX=0.991;exitY=-0.01;exitDx=0;exitDy=0;exitPerimeter=0;" parent="1" source="PfSVO4qsS9hKbJUOizry-50" edge="1">
          <mxGeometry width="50" height="50" relative="1" as="geometry">
            <mxPoint x="589" y="1351" as="sourcePoint" />
            <mxPoint x="536" y="1289.9999999999998" as="targetPoint" />
          </mxGeometry>
        </mxCell>
        <mxCell id="PfSVO4qsS9hKbJUOizry-55" value="&lt;font style=&quot;font-size: 12px;&quot;&gt;卷积&lt;/font&gt;" style="text;html=1;resizable=0;points=[];autosize=1;align=left;verticalAlign=top;spacingTop=-4;fontFamily=Times New Roman;fontSize=12;strokeColor=none;" parent="1" vertex="1">
          <mxGeometry x="515.5" y="1301" width="40" height="10" as="geometry" />
        </mxCell>
        <mxCell id="PfSVO4qsS9hKbJUOizry-56" value="&lt;font style=&quot;font-size: 12px;&quot;&gt;大小64*100&lt;/font&gt;" style="text;html=1;strokeColor=none;fillColor=none;align=center;verticalAlign=middle;whiteSpace=wrap;rounded=0;shadow=0;glass=0;comic=0;labelBackgroundColor=none;fontFamily=Times New Roman;fontSize=12;" parent="1" vertex="1">
          <mxGeometry x="606.5" y="1291" width="97" height="35" as="geometry" />
        </mxCell>
        <mxCell id="PfSVO4qsS9hKbJUOizry-103" value="&lt;font style=&quot;font-size: 20px;&quot;&gt;conv&lt;/font&gt;" style="text;html=1;align=center;verticalAlign=middle;resizable=0;points=[];autosize=1;fontSize=20;fontFamily=Times New Roman;" parent="1" vertex="1">
          <mxGeometry x="195" y="430" width="50" height="30" as="geometry" />
        </mxCell>
        <mxCell id="PfSVO4qsS9hKbJUOizry-104" value="&lt;font style=&quot;font-size: 20px;&quot;&gt;pool&lt;/font&gt;" style="text;html=1;align=center;verticalAlign=middle;resizable=0;points=[];autosize=1;fontSize=20;fontFamily=Times New Roman;" parent="1" vertex="1">
          <mxGeometry x="258" y="481" width="50" height="30" as="geometry" />
        </mxCell>
        <mxCell id="PfSVO4qsS9hKbJUOizry-107" value="" style="rounded=0;whiteSpace=wrap;html=1;strokeColor=#000000;fillColor=#333333;fontFamily=Times New Roman;fontSize=25;" parent="1" vertex="1">
          <mxGeometry x="170" y="488" width="10" height="260" as="geometry" />
        </mxCell>
        <mxCell id="PfSVO4qsS9hKbJUOizry-108" value="" style="rounded=0;whiteSpace=wrap;html=1;strokeColor=#000000;fillColor=#FFFFFF;fontFamily=Times New Roman;fontSize=25;" parent="1" vertex="1">
          <mxGeometry x="200" y="488" width="40" height="260" as="geometry" />
        </mxCell>
        <mxCell id="PfSVO4qsS9hKbJUOizry-165" value="" style="edgeStyle=orthogonalEdgeStyle;rounded=0;orthogonalLoop=1;jettySize=auto;html=1;fontSize=1;" parent="1" source="PfSVO4qsS9hKbJUOizry-109" target="PfSVO4qsS9hKbJUOizry-164" edge="1">
          <mxGeometry relative="1" as="geometry" />
        </mxCell>
        <mxCell id="PfSVO4qsS9hKbJUOizry-109" value="" style="rounded=0;whiteSpace=wrap;html=1;strokeColor=#000000;fillColor=#E1D5E7;fontFamily=Times New Roman;fontSize=25;" parent="1" vertex="1">
          <mxGeometry x="260" y="540" width="40" height="162" as="geometry" />
        </mxCell>
        <mxCell id="PfSVO4qsS9hKbJUOizry-171" value="" style="edgeStyle=orthogonalEdgeStyle;rounded=0;orthogonalLoop=1;jettySize=auto;html=1;fontSize=1;" parent="1" source="PfSVO4qsS9hKbJUOizry-164" edge="1">
          <mxGeometry relative="1" as="geometry">
            <mxPoint x="600" y="640" as="targetPoint" />
          </mxGeometry>
        </mxCell>
        <mxCell id="PfSVO4qsS9hKbJUOizry-164" value="" style="rounded=0;whiteSpace=wrap;html=1;strokeColor=#000000;fillColor=#E1D5E7;fontFamily=Times New Roman;fontSize=25;" parent="1" vertex="1">
          <mxGeometry x="260" y="782" width="40" height="100" as="geometry" />
        </mxCell>
        <mxCell id="PfSVO4qsS9hKbJUOizry-110" value="" style="rounded=0;whiteSpace=wrap;html=1;strokeColor=#000000;fillColor=#FFFFFF;fontFamily=Times New Roman;fontSize=25;" parent="1" vertex="1">
          <mxGeometry x="320" y="540" width="40" height="162" as="geometry" />
        </mxCell>
        <mxCell id="PfSVO4qsS9hKbJUOizry-111" value="" style="rounded=0;whiteSpace=wrap;html=1;strokeColor=#000000;fillColor=#FFFFFF;fontFamily=Times New Roman;fontSize=25;" parent="1" vertex="1">
          <mxGeometry x="387.5" y="540" width="22.5" height="162" as="geometry" />
        </mxCell>
        <mxCell id="PfSVO4qsS9hKbJUOizry-174" style="edgeStyle=orthogonalEdgeStyle;rounded=0;orthogonalLoop=1;jettySize=auto;html=1;fontSize=1;" parent="1" source="PfSVO4qsS9hKbJUOizry-112" edge="1">
          <mxGeometry relative="1" as="geometry">
            <mxPoint x="600" y="760" as="targetPoint" />
            <Array as="points">
              <mxPoint x="445" y="760" />
            </Array>
          </mxGeometry>
        </mxCell>
        <mxCell id="PfSVO4qsS9hKbJUOizry-112" value="" style="rounded=0;whiteSpace=wrap;html=1;strokeColor=#000000;fillColor=#E1D5E7;fontFamily=Times New Roman;fontSize=1;" parent="1" vertex="1">
          <mxGeometry x="434" y="585" width="22.5" height="100" as="geometry" />
        </mxCell>
        <mxCell id="PfSVO4qsS9hKbJUOizry-139" value="" style="edgeStyle=orthogonalEdgeStyle;rounded=0;orthogonalLoop=1;jettySize=auto;html=1;fontSize=1;" parent="1" edge="1">
          <mxGeometry relative="1" as="geometry">
            <mxPoint x="492" y="600" as="sourcePoint" />
            <mxPoint x="492" y="613.5" as="targetPoint" />
          </mxGeometry>
        </mxCell>
        <mxCell id="PfSVO4qsS9hKbJUOizry-113" value="LSTM" style="rounded=0;whiteSpace=wrap;html=1;fillColor=#FFFFFF;fontSize=1;" parent="1" vertex="1">
          <mxGeometry x="480.5" y="586" width="37" height="15" as="geometry" />
        </mxCell>
        <mxCell id="PfSVO4qsS9hKbJUOizry-141" value="" style="edgeStyle=orthogonalEdgeStyle;rounded=0;orthogonalLoop=1;jettySize=auto;html=1;fontSize=1;" parent="1" edge="1">
          <mxGeometry relative="1" as="geometry">
            <mxPoint x="493" y="628.5" as="sourcePoint" />
            <mxPoint x="493" y="640" as="targetPoint" />
          </mxGeometry>
        </mxCell>
        <mxCell id="PfSVO4qsS9hKbJUOizry-138" value="LSTM" style="rounded=0;whiteSpace=wrap;html=1;fillColor=#FFFFFF;fontSize=1;" parent="1" vertex="1">
          <mxGeometry x="480.5" y="613.5" width="37" height="15" as="geometry" />
        </mxCell>
        <mxCell id="PfSVO4qsS9hKbJUOizry-140" value="LSTM" style="rounded=0;whiteSpace=wrap;html=1;fillColor=#FFFFFF;fontSize=1;" parent="1" vertex="1">
          <mxGeometry x="480.5" y="640" width="37" height="15" as="geometry" />
        </mxCell>
        <mxCell id="PfSVO4qsS9hKbJUOizry-143" value="LSTM" style="rounded=0;whiteSpace=wrap;html=1;fillColor=#FFFFFF;fontSize=1;" parent="1" vertex="1">
          <mxGeometry x="480.5" y="670" width="37" height="15" as="geometry" />
        </mxCell>
        <mxCell id="PfSVO4qsS9hKbJUOizry-148" value="" style="edgeStyle=orthogonalEdgeStyle;rounded=0;orthogonalLoop=1;jettySize=auto;html=1;fontSize=1;" parent="1" edge="1">
          <mxGeometry relative="1" as="geometry">
            <mxPoint x="507" y="613" as="sourcePoint" />
            <mxPoint x="507" y="601" as="targetPoint" />
          </mxGeometry>
        </mxCell>
        <mxCell id="PfSVO4qsS9hKbJUOizry-149" value="" style="edgeStyle=orthogonalEdgeStyle;rounded=0;orthogonalLoop=1;jettySize=auto;html=1;fontSize=1;" parent="1" edge="1">
          <mxGeometry relative="1" as="geometry">
            <mxPoint x="507" y="640" as="sourcePoint" />
            <mxPoint x="507" y="628" as="targetPoint" />
          </mxGeometry>
        </mxCell>
        <mxCell id="PfSVO4qsS9hKbJUOizry-150" value="&lt;font style=&quot;font-size: 21px&quot;&gt;...&lt;/font&gt;" style="text;html=1;align=center;verticalAlign=middle;resizable=0;points=[];autosize=1;fontSize=1;" parent="1" vertex="1">
          <mxGeometry x="481.5" y="653" width="30" height="10" as="geometry" />
        </mxCell>
        <mxCell id="PfSVO4qsS9hKbJUOizry-151" value="" style="shape=flexArrow;endArrow=classic;html=1;fontSize=1;width=3.888888888888889;endSize=4.288888888888889;endWidth=11.296296296296296;" parent="1" edge="1">
          <mxGeometry width="50" height="50" relative="1" as="geometry">
            <mxPoint x="460" y="677.36" as="sourcePoint" />
            <mxPoint x="480" y="677.36" as="targetPoint" />
          </mxGeometry>
        </mxCell>
        <mxCell id="PfSVO4qsS9hKbJUOizry-152" value="" style="shape=flexArrow;endArrow=classic;html=1;fontSize=1;width=3.888888888888889;endSize=4.288888888888889;endWidth=11.296296296296296;" parent="1" edge="1">
          <mxGeometry width="50" height="50" relative="1" as="geometry">
            <mxPoint x="459.5" y="593.36" as="sourcePoint" />
            <mxPoint x="479.5" y="593.36" as="targetPoint" />
          </mxGeometry>
        </mxCell>
        <mxCell id="PfSVO4qsS9hKbJUOizry-153" value="" style="shape=flexArrow;endArrow=classic;html=1;fontSize=1;width=3.888888888888889;endSize=4.288888888888889;endWidth=11.296296296296296;" parent="1" edge="1">
          <mxGeometry width="50" height="50" relative="1" as="geometry">
            <mxPoint x="460" y="620.86" as="sourcePoint" />
            <mxPoint x="480" y="620.86" as="targetPoint" />
          </mxGeometry>
        </mxCell>
        <mxCell id="PfSVO4qsS9hKbJUOizry-154" value="" style="shape=flexArrow;endArrow=classic;html=1;fontSize=1;width=3.888888888888889;endSize=4.288888888888889;endWidth=11.296296296296296;" parent="1" edge="1">
          <mxGeometry width="50" height="50" relative="1" as="geometry">
            <mxPoint x="460" y="647.36" as="sourcePoint" />
            <mxPoint x="480" y="647.36" as="targetPoint" />
          </mxGeometry>
        </mxCell>
        <mxCell id="PfSVO4qsS9hKbJUOizry-156" value="12*200" style="text;html=1;align=center;verticalAlign=middle;resizable=0;points=[];autosize=1;fontSize=1;" parent="1" vertex="1">
          <mxGeometry x="140" y="463" width="70" height="10" as="geometry" />
        </mxCell>
        <mxCell id="PfSVO4qsS9hKbJUOizry-157" value="64*200" style="text;html=1;align=center;verticalAlign=middle;resizable=0;points=[];autosize=1;fontSize=1;" parent="1" vertex="1">
          <mxGeometry x="185" y="463" width="70" height="10" as="geometry" />
        </mxCell>
        <mxCell id="PfSVO4qsS9hKbJUOizry-158" value="64*100" style="text;html=1;align=center;verticalAlign=middle;resizable=0;points=[];autosize=1;fontSize=1;" parent="1" vertex="1">
          <mxGeometry x="245" y="520" width="70" height="10" as="geometry" />
        </mxCell>
        <mxCell id="PfSVO4qsS9hKbJUOizry-159" value="64*100" style="text;html=1;align=center;verticalAlign=middle;resizable=0;points=[];autosize=1;fontSize=1;" parent="1" vertex="1">
          <mxGeometry x="300" y="520" width="70" height="10" as="geometry" />
        </mxCell>
        <mxCell id="PfSVO4qsS9hKbJUOizry-160" value="32*100" style="text;html=1;align=center;verticalAlign=middle;resizable=0;points=[];autosize=1;fontSize=1;" parent="1" vertex="1">
          <mxGeometry x="363.75" y="520" width="70" height="10" as="geometry" />
        </mxCell>
        <mxCell id="PfSVO4qsS9hKbJUOizry-161" value="32*50" style="text;html=1;align=center;verticalAlign=middle;resizable=0;points=[];autosize=1;fontSize=1;" parent="1" vertex="1">
          <mxGeometry x="416" y="560" width="60" height="10" as="geometry" />
        </mxCell>
        <mxCell id="PfSVO4qsS9hKbJUOizry-162" value="50*64" style="text;html=1;align=center;verticalAlign=middle;resizable=0;points=[];autosize=1;fontSize=1;" parent="1" vertex="1">
          <mxGeometry x="527" y="560" width="60" height="10" as="geometry" />
        </mxCell>
        <mxCell id="PfSVO4qsS9hKbJUOizry-178" value="" style="edgeStyle=orthogonalEdgeStyle;rounded=0;orthogonalLoop=1;jettySize=auto;html=1;fontSize=1;" parent="1" source="PfSVO4qsS9hKbJUOizry-163" target="PfSVO4qsS9hKbJUOizry-175" edge="1">
          <mxGeometry relative="1" as="geometry" />
        </mxCell>
        <mxCell id="PfSVO4qsS9hKbJUOizry-163" value="" style="rounded=0;whiteSpace=wrap;html=1;strokeColor=#000000;fillColor=#6666FF;fontFamily=Times New Roman;fontSize=25;" parent="1" vertex="1">
          <mxGeometry x="540.5" y="582" width="39.5" height="106" as="geometry" />
        </mxCell>
        <mxCell id="PfSVO4qsS9hKbJUOizry-175" value="" style="rounded=0;whiteSpace=wrap;html=1;strokeColor=#9673a6;fillColor=#7EA6E0;fontFamily=Times New Roman;fontSize=25;" parent="1" vertex="1">
          <mxGeometry x="623" y="582" width="67" height="106" as="geometry" />
        </mxCell>
        <mxCell id="PfSVO4qsS9hKbJUOizry-176" value="&lt;font style=&quot;font-size: 18px&quot;&gt;输入数据&lt;/font&gt;" style="text;html=1;align=center;verticalAlign=middle;resizable=0;points=[];autosize=1;fontSize=1;" parent="1" vertex="1">
          <mxGeometry x="130" y="770" width="90" height="10" as="geometry" />
        </mxCell>
        <mxCell id="PfSVO4qsS9hKbJUOizry-177" value="50*160" style="text;html=1;align=center;verticalAlign=middle;resizable=0;points=[];autosize=1;fontSize=1;" parent="1" vertex="1">
          <mxGeometry x="621" y="561" width="70" height="10" as="geometry" />
        </mxCell>
        <mxCell id="PfSVO4qsS9hKbJUOizry-179" value="&lt;font style=&quot;font-size: 20px;&quot;&gt;conv&lt;/font&gt;" style="text;html=1;align=center;verticalAlign=middle;resizable=0;points=[];autosize=1;fontSize=20;fontFamily=Times New Roman;" parent="1" vertex="1">
          <mxGeometry x="313" y="481" width="50" height="30" as="geometry" />
        </mxCell>
        <mxCell id="PfSVO4qsS9hKbJUOizry-180" value="&lt;font style=&quot;font-size: 20px;&quot;&gt;conv&lt;/font&gt;" style="text;html=1;align=center;verticalAlign=middle;resizable=0;points=[];autosize=1;fontSize=20;fontFamily=Times New Roman;" parent="1" vertex="1">
          <mxGeometry x="373" y="481" width="50" height="30" as="geometry" />
        </mxCell>
        <mxCell id="PfSVO4qsS9hKbJUOizry-181" value="&lt;font style=&quot;font-size: 20px;&quot;&gt;pool&lt;/font&gt;" style="text;html=1;align=center;verticalAlign=middle;resizable=0;points=[];autosize=1;fontSize=20;fontFamily=Times New Roman;" parent="1" vertex="1">
          <mxGeometry x="423.5" y="520" width="50" height="30" as="geometry" />
        </mxCell>
        <mxCell id="PfSVO4qsS9hKbJUOizry-182" value="&lt;font style=&quot;font-size: 20px;&quot;&gt;pool&lt;/font&gt;" style="text;html=1;align=center;verticalAlign=middle;resizable=0;points=[];autosize=1;fontSize=20;fontFamily=Times New Roman;" parent="1" vertex="1">
          <mxGeometry x="278" y="718" width="50" height="30" as="geometry" />
        </mxCell>
        <mxCell id="PfSVO4qsS9hKbJUOizry-183" value="64*50" style="text;html=1;align=center;verticalAlign=middle;resizable=0;points=[];autosize=1;fontSize=1;" parent="1" vertex="1">
          <mxGeometry x="273" y="750" width="60" height="10" as="geometry" />
        </mxCell>
        <mxCell id="PfSVO4qsS9hKbJUOizry-184" value="" style="rounded=0;whiteSpace=wrap;html=1;strokeColor=#9673a6;fillColor=#7EA6E0;fontFamily=Times New Roman;fontSize=25;" parent="1" vertex="1">
          <mxGeometry x="720" y="582" width="5.5" height="106" as="geometry" />
        </mxCell>
        <mxCell id="PfSVO4qsS9hKbJUOizry-186" value="" style="rounded=0;whiteSpace=wrap;html=1;strokeColor=#9673a6;fillColor=#000000;fontFamily=Times New Roman;fontSize=25;fontColor=#000000;" parent="1" vertex="1">
          <mxGeometry x="750" y="603" width="5.5" height="64" as="geometry" />
        </mxCell>
        <mxCell id="PfSVO4qsS9hKbJUOizry-187" value="avgpool" style="text;html=1;align=center;verticalAlign=middle;resizable=0;points=[];autosize=1;fontSize=20;fontColor=#000000;" parent="1" vertex="1">
          <mxGeometry x="680.75" y="520" width="90" height="30" as="geometry" />
        </mxCell>
        <mxCell id="PfSVO4qsS9hKbJUOizry-188" value="1*160" style="text;html=1;align=center;verticalAlign=middle;resizable=0;points=[];autosize=1;fontSize=1;" parent="1" vertex="1">
          <mxGeometry x="692.75" y="561" width="60" height="10" as="geometry" />
        </mxCell>
        <mxCell id="PfSVO4qsS9hKbJUOizry-189" value="1*12" style="text;html=1;align=center;verticalAlign=middle;resizable=0;points=[];autosize=1;fontSize=1;" parent="1" vertex="1">
          <mxGeometry x="730.5" y="580" width="50" height="10" as="geometry" />
        </mxCell>
        <mxCell id="PfSVO4qsS9hKbJUOizry-190" value="&lt;font style=&quot;font-size: 18px&quot; face=&quot;Times New Roman&quot;&gt;结果&lt;/font&gt;" style="text;html=1;align=center;verticalAlign=middle;resizable=0;points=[];autosize=1;fontSize=20;fontColor=#000000;" parent="1" vertex="1">
          <mxGeometry x="760.5" y="620" width="50" height="30" as="geometry" />
        </mxCell>
        <mxCell id="cf1hGeY_-bMi-_1NgyGV-1" value="&lt;font style=&quot;font-size: 17px&quot;&gt;BLSTM&lt;/font&gt;" style="text;html=1;align=center;verticalAlign=middle;resizable=0;points=[];autosize=1;fontSize=20;fontFamily=Times New Roman;" vertex="1" parent="1">
          <mxGeometry x="525.25" y="520" width="70" height="30" as="geometry" />
        </mxCell>
        <mxCell id="cf1hGeY_-bMi-_1NgyGV-2" value="&lt;font face=&quot;Times New Roman&quot; style=&quot;font-size: 18px&quot;&gt;转置&lt;/font&gt;" style="text;html=1;align=center;verticalAlign=middle;resizable=0;points=[];autosize=1;" vertex="1" parent="1">
          <mxGeometry x="416" y="810" width="50" height="20" as="geometry" />
        </mxCell>
        <mxCell id="cf1hGeY_-bMi-_1NgyGV-3" value="&lt;font style=&quot;font-size: 18px&quot;&gt;转置&lt;/font&gt;" style="text;html=1;align=center;verticalAlign=middle;resizable=0;points=[];autosize=1;" vertex="1" parent="1">
          <mxGeometry x="493" y="740" width="50" height="20" as="geometry" />
        </mxCell>
        <mxCell id="cf1hGeY_-bMi-_1NgyGV-4" value="&lt;font face=&quot;Times New Roman&quot;&gt;concat&lt;/font&gt;" style="text;html=1;align=center;verticalAlign=middle;resizable=0;points=[];autosize=1;" vertex="1" parent="1">
          <mxGeometry x="574.5" y="611" width="60" height="20" as="geometry" />
        </mxCell>
      </root>
    </mxGraphModel>
  </diagram>
</mxfile>
